<svg width="26.753906" height="26.754150" viewBox="0 0 26.7539 26.7542" fill="none" xmlns="http://www.w3.org/2000/svg" xmlns:xlink="http://www.w3.org/1999/xlink">
	<desc>
			Created with Pixso.
	</desc>
	<defs/>
	<path id="Vector" d="M12.54 10.3L12.54 12.44C11.73 12.24 11.2 11.78 11.2 11.37C11.2 10.94 11.73 10.48 12.54 10.3Z" fill="#000000" fill-opacity="1.000000" fill-rule="nonzero"/>
	<path id="Vector" d="M15.55 15.38C15.55 15.79 15.01 16.25 14.21 16.45L14.21 14.31C15.01 14.5 15.55 14.96 15.55 15.38Z" fill="#000000" fill-opacity="1.000000" fill-rule="nonzero"/>
	<path id="Vector" d="M21.05 5.68C19 3.63 16.27 2.5 13.37 2.5C10.48 2.5 7.74 3.63 5.69 5.68C3.63 7.73 2.5 10.46 2.5 13.37C2.5 14.8 2.78 16.2 3.33 17.53C3.88 18.86 4.68 20.04 5.69 21.05C6.7 22.07 7.89 22.86 9.22 23.4C10.54 23.96 11.94 24.24 13.37 24.24C14.81 24.24 16.2 23.96 17.53 23.4C18.86 22.86 20.05 22.07 21.05 21.05C22.07 20.04 22.87 18.86 23.42 17.53C23.96 16.2 24.24 14.8 24.24 13.37C24.24 10.46 23.12 7.73 21.05 5.68ZM14.21 18.15L14.21 18.39C14.21 18.85 13.83 19.22 13.37 19.22C12.92 19.22 12.54 18.85 12.54 18.39L12.54 18.14C11.56 17.99 10.69 17.56 10.13 16.93C9.88 16.64 9.86 16.21 10.09 15.9C10.31 15.58 10.71 15.47 11.07 15.6L12.54 16.16L12.54 14.13C10.8 13.86 9.53 12.74 9.53 11.37C9.53 9.98 10.8 8.87 12.54 8.59L12.54 8.36C12.54 7.89 12.92 7.52 13.37 7.52C13.83 7.52 14.21 7.89 14.21 8.36L14.21 8.59C15.19 8.76 16.06 9.18 16.62 9.81C16.86 10.09 16.89 10.52 16.66 10.84C16.51 11.06 16.25 11.2 15.98 11.2C15.88 11.2 15.78 11.18 15.68 11.14L14.21 10.57L14.21 12.6C15.95 12.87 17.22 14 17.22 15.38C17.22 16.76 15.95 17.88 14.21 18.15Z" fill="#000000" fill-opacity="1.000000" fill-rule="nonzero"/>
</svg>
