<svg width="26.753906" height="26.754150" viewBox="0 0 26.7539 26.7542" fill="none" xmlns="http://www.w3.org/2000/svg" xmlns:xlink="http://www.w3.org/1999/xlink">
	<desc>
			Created with Pixso.
	</desc>
	<defs/>
	<path id="Vector" d="M19.1 2.18L7.64 2.18C5.93 2.18 4.52 3.57 4.52 5.3L4.52 21.34C4.52 23.07 5.93 24.48 7.64 24.48L19.1 24.48C20.83 24.48 22.22 23.07 22.22 21.34L22.22 5.3C22.22 3.57 20.83 2.18 19.1 2.18ZM8.79 18.27L17.95 18.27C18.42 18.27 18.79 18.64 18.79 19.1C18.79 19.56 18.42 19.94 17.95 19.94L8.79 19.94C8.33 19.94 7.95 19.56 7.95 19.1C7.95 18.64 8.33 18.27 8.79 18.27ZM7.95 13.37C7.95 12.91 8.33 12.54 8.79 12.54L17.95 12.54C18.42 12.54 18.79 12.91 18.79 13.37C18.79 13.84 18.42 14.21 17.95 14.21L8.79 14.21C8.33 14.21 7.95 13.84 7.95 13.37ZM17.95 8.48L8.79 8.48C8.33 8.48 7.95 8.11 7.95 7.64C7.95 7.18 8.33 6.81 8.79 6.81L17.95 6.81C18.42 6.81 18.79 7.18 18.79 7.64C18.79 8.11 18.42 8.48 17.95 8.48Z" fill="#000000" fill-opacity="1.000000" fill-rule="nonzero"/>
</svg>
