<svg width="26.753906" height="26.754150" viewBox="0 0 26.7539 26.7542" fill="none" xmlns="http://www.w3.org/2000/svg" xmlns:xlink="http://www.w3.org/1999/xlink">
	<desc>
			Created with Pixso.
	</desc>
	<defs/>
	<path id="Vector" d="M20.25 2.22L6.5 2.22C4.14 2.22 2.23 4.14 2.23 6.49L2.23 20.25C2.23 22.6 4.14 24.52 6.5 24.52L20.25 24.52C22.28 24.52 23.97 23.09 24.41 21.2C24.48 21.08 24.52 20.94 24.52 20.8L24.52 6.49C24.52 4.14 22.6 2.22 20.25 2.22ZM21.09 14.52C21.09 14.98 20.71 15.36 20.25 15.36C19.78 15.36 19.41 14.98 19.41 14.52L19.41 12.22C19.41 11.77 19.78 11.39 20.25 11.39C20.71 11.39 21.09 11.77 21.09 12.22L21.09 14.52ZM5.66 14.52L5.66 12.22C5.66 11.77 6.04 11.39 6.5 11.39C6.96 11.39 7.33 11.77 7.33 12.22L7.33 14.52C7.33 14.98 6.96 15.36 6.5 15.36C6.04 15.36 5.66 14.98 5.66 14.52ZM17.64 9.94L17.64 16.81C17.64 17.27 17.27 17.64 16.81 17.64C16.35 17.64 15.97 17.27 15.97 16.81L15.97 9.94C15.97 9.47 16.35 9.1 16.81 9.1C17.27 9.1 17.64 9.47 17.64 9.94ZM14.21 7.64L14.21 19.1C14.21 19.56 13.83 19.94 13.37 19.94C12.92 19.94 12.54 19.56 12.54 19.1L12.54 7.64C12.54 7.19 12.92 6.81 13.37 6.81C13.83 6.81 14.21 7.19 14.21 7.64ZM10.78 9.94L10.78 16.81C10.78 17.27 10.4 17.64 9.94 17.64C9.47 17.64 9.1 17.27 9.1 16.81L9.1 9.94C9.1 9.47 9.47 9.1 9.94 9.1C10.4 9.1 10.78 9.47 10.78 9.94Z" fill="#000000" fill-opacity="1.000000" fill-rule="nonzero"/>
</svg>
